<svg xmlns="http://www.w3.org/2000/svg" viewBox="0 0 100 100" width="100" height="100">
  <defs>
    <!-- Enhanced gradients for a more premium look -->
    <radialGradient id="skyGradient" cx="50%" cy="30%" r="70%">
      <stop offset="0%" style="stop-color:#87CEEB;stop-opacity:1" />
      <stop offset="50%" style="stop-color:#4682B4;stop-opacity:1" />
      <stop offset="100%" style="stop-color:#191970;stop-opacity:1" />
    </radialGradient>

    <radialGradient id="sunGradient" cx="30%" cy="30%" r="80%">
      <stop offset="0%" style="stop-color:#FFD700;stop-opacity:1" />
      <stop offset="70%" style="stop-color:#FFA500;stop-opacity:1" />
      <stop offset="100%" style="stop-color:#FF6347;stop-opacity:1" />
    </radialGradient>

    <linearGradient id="cloudGradient" x1="0%" y1="0%" x2="100%" y2="100%">
      <stop offset="0%" style="stop-color:#FFFFFF;stop-opacity:0.95" />
      <stop offset="100%" style="stop-color:#F0F8FF;stop-opacity:0.85" />
    </linearGradient>

    <!-- Drop shadow filter -->
    <filter id="dropShadow" x="-50%" y="-50%" width="200%" height="200%">
      <feDropShadow dx="2" dy="2" stdDeviation="2" flood-color="rgba(0,0,0,0.3)"/>
    </filter>

    <!-- Glow effect for sun -->
    <filter id="sunGlow" x="-50%" y="-50%" width="200%" height="200%">
      <feGaussianBlur stdDeviation="3" result="coloredBlur"/>
      <feMerge>
        <feMergeNode in="coloredBlur"/>
        <feMergeNode in="SourceGraphic"/>
      </feMerge>
    </filter>
  </defs>

  <!-- Background circle with enhanced gradient -->
  <circle cx="50" cy="50" r="48" fill="url(#skyGradient)" stroke="#FFFFFF" stroke-width="1.5" filter="url(#dropShadow)"/>

  <!-- Sun with glow effect -->
  <circle cx="32" cy="32" r="14" fill="url(#sunGradient)" filter="url(#sunGlow)"/>

  <!-- Enhanced sun rays with varying lengths -->
  <g stroke="#FFD700" stroke-width="2.5" stroke-linecap="round" opacity="0.9">
    <line x1="32" y1="12" x2="32" y2="18"/>
    <line x1="32" y1="46" x2="32" y2="52"/>
    <line x1="12" y1="32" x2="18" y2="32"/>
    <line x1="46" y1="32" x2="52" y2="32"/>
    <line x1="19.5" y1="19.5" x2="23.5" y2="23.5"/>
    <line x1="40.5" y1="40.5" x2="44.5" y2="44.5"/>
    <line x1="44.5" y1="19.5" x2="40.5" y2="23.5"/>
    <line x1="23.5" y1="40.5" x2="19.5" y2="44.5"/>
  </g>

  <!-- Enhanced cloud with better positioning and gradient -->
  <g fill="url(#cloudGradient)" filter="url(#dropShadow)">
    <circle cx="62" cy="58" r="9"/>
    <circle cx="71" cy="58" r="11"/>
    <circle cx="80" cy="58" r="9"/>
    <circle cx="66" cy="49" r="7"/>
    <circle cx="75" cy="49" r="8"/>
  </g>

  <!-- Subtle cloud highlight -->
  <g fill="rgba(255,255,255,0.6)">
    <ellipse cx="71" cy="54" rx="12" ry="3"/>
  </g>

  <!-- Weather symbol accent - small temperature indicator -->
  <g fill="#FF6B6B" opacity="0.8">
    <rect x="85" y="25" width="3" height="12" rx="1.5"/>
    <circle cx="86.5" cy="20" r="3"/>
  </g>

  <!-- Decorative border accent -->
  <circle cx="50" cy="50" r="47" fill="none" stroke="rgba(255,255,255,0.3)" stroke-width="0.5"/>
</svg>
